<svg width="3088" height="3088" viewBox="0 0 3088 3088" fill="none" xmlns="http://www.w3.org/2000/svg">
<g filter="url(#filter0_d_6_620)">
<path d="M44 1603.5L1544 1540.5H44V1603.5Z" fill="#4C90EE"/>
<path d="M44 1603.5L1544 1540.5H44V1603.5Z" fill="black" fill-opacity="0.2"/>
<path d="M44 1603.5L1544 1540.5H44V1603.5Z" fill="black" fill-opacity="0.2"/>
<path d="M44 1476.5L1544 1540.5H44V1476.5Z" fill="#4C90EE"/>
<path d="M44 1476.5L1544 1540.5H44V1476.5Z" fill="black" fill-opacity="0.2"/>
<path d="M44 1476.5L1544 1540.5H44V1476.5Z" fill="black" fill-opacity="0.2"/>
<path d="M97.7928 1136.87L1543.85 1540.48L117.261 1076.95L97.7928 1136.87Z" fill="#4C90EE"/>
<path d="M97.7928 1136.87L1543.85 1540.48L117.261 1076.95L97.7928 1136.87Z" fill="black" fill-opacity="0.2"/>
<path d="M97.7928 1136.87L1543.85 1540.48L117.261 1076.95L97.7928 1136.87Z" fill="black" fill-opacity="0.2"/>
<path d="M137.038 1016.08L1543.85 1540.48L117.261 1076.95L137.038 1016.08Z" fill="#4C90EE"/>
<path d="M137.038 1016.08L1543.85 1540.48L117.261 1076.95L137.038 1016.08Z" fill="black" fill-opacity="0.2"/>
<path d="M137.038 1016.08L1543.85 1540.48L117.261 1076.95L137.038 1016.08Z" fill="black" fill-opacity="0.2"/>
<path d="M293.15 709.695L1543.71 1540.4L330.181 658.727L293.15 709.695Z" fill="#4C90EE"/>
<path d="M293.15 709.695L1543.71 1540.4L330.181 658.727L293.15 709.695Z" fill="black" fill-opacity="0.2"/>
<path d="M293.15 709.695L1543.71 1540.4L330.181 658.727L293.15 709.695Z" fill="black" fill-opacity="0.2"/>
<path d="M367.799 606.95L1543.71 1540.4L330.181 658.727L367.799 606.95Z" fill="#4C90EE"/>
<path d="M367.799 606.95L1543.71 1540.4L330.181 658.727L367.799 606.95Z" fill="black" fill-opacity="0.2"/>
<path d="M367.799 606.95L1543.71 1540.4L330.181 658.727L367.799 606.95Z" fill="black" fill-opacity="0.2"/>
<path d="M610.95 363.799L1543.6 1540.29L661.918 326.768L610.95 363.799Z" fill="#4C90EE"/>
<path d="M610.95 363.799L1543.6 1540.29L661.918 326.768L610.95 363.799Z" fill="black" fill-opacity="0.2"/>
<path d="M610.95 363.799L1543.6 1540.29L661.918 326.768L610.95 363.799Z" fill="black" fill-opacity="0.2"/>
<path d="M713.695 289.15L1543.6 1540.29L661.918 326.768L713.695 289.15Z" fill="#4C90EE"/>
<path d="M713.695 289.15L1543.6 1540.29L661.918 326.768L713.695 289.15Z" fill="black" fill-opacity="0.2"/>
<path d="M713.695 289.15L1543.6 1540.29L661.918 326.768L713.695 289.15Z" fill="black" fill-opacity="0.2"/>
<path d="M1020.08 133.038L1543.52 1540.15L1080 113.57L1020.08 133.038Z" fill="#4C90EE"/>
<path d="M1020.08 133.038L1543.52 1540.15L1080 113.57L1020.08 133.038Z" fill="black" fill-opacity="0.2"/>
<path d="M1020.08 133.038L1543.52 1540.15L1080 113.57L1020.08 133.038Z" fill="black" fill-opacity="0.2"/>
<path d="M1140.87 93.7926L1543.52 1540.15L1080 113.57L1140.87 93.7926Z" fill="#4C90EE"/>
<path d="M1140.87 93.7926L1543.52 1540.15L1080 113.57L1140.87 93.7926Z" fill="black" fill-opacity="0.2"/>
<path d="M1140.87 93.7926L1543.52 1540.15L1080 113.57L1140.87 93.7926Z" fill="black" fill-opacity="0.2"/>
<path d="M1480.5 40L1543.5 1540V40H1480.5Z" fill="#4C90EE"/>
<path d="M1480.5 40L1543.5 1540V40H1480.5Z" fill="black" fill-opacity="0.2"/>
<path d="M1480.5 40L1543.5 1540V40H1480.5Z" fill="black" fill-opacity="0.2"/>
<path d="M1607.5 40L1543.5 1540V40H1607.5Z" fill="#4C90EE"/>
<path d="M1607.5 40L1543.5 1540V40H1607.5Z" fill="black" fill-opacity="0.2"/>
<path d="M1607.5 40L1543.5 1540V40H1607.5Z" fill="black" fill-opacity="0.2"/>
<path d="M1947.13 93.7926L1543.52 1539.85L2007.05 113.261L1947.13 93.7926Z" fill="#4C90EE"/>
<path d="M1947.13 93.7926L1543.52 1539.85L2007.05 113.261L1947.13 93.7926Z" fill="black" fill-opacity="0.2"/>
<path d="M1947.13 93.7926L1543.52 1539.85L2007.05 113.261L1947.13 93.7926Z" fill="black" fill-opacity="0.2"/>
<path d="M2067.92 133.038L1543.52 1539.85L2007.05 113.261L2067.92 133.038Z" fill="#4C90EE"/>
<path d="M2067.92 133.038L1543.52 1539.85L2007.05 113.261L2067.92 133.038Z" fill="black" fill-opacity="0.2"/>
<path d="M2067.92 133.038L1543.52 1539.85L2007.05 113.261L2067.92 133.038Z" fill="black" fill-opacity="0.2"/>
<path d="M2374.31 289.15L1543.6 1539.71L2425.27 326.181L2374.31 289.15Z" fill="#4C90EE"/>
<path d="M2374.31 289.15L1543.6 1539.71L2425.27 326.181L2374.31 289.15Z" fill="black" fill-opacity="0.2"/>
<path d="M2374.31 289.15L1543.6 1539.71L2425.27 326.181L2374.31 289.15Z" fill="black" fill-opacity="0.2"/>
<path d="M2477.05 363.799L1543.6 1539.71L2425.27 326.181L2477.05 363.799Z" fill="#4C90EE"/>
<path d="M2477.05 363.799L1543.6 1539.71L2425.27 326.181L2477.05 363.799Z" fill="black" fill-opacity="0.2"/>
<path d="M2477.05 363.799L1543.6 1539.71L2425.27 326.181L2477.05 363.799Z" fill="black" fill-opacity="0.2"/>
<path d="M2720.2 606.95L1543.71 1539.6L2757.23 657.918L2720.2 606.95Z" fill="#4C90EE"/>
<path d="M2720.2 606.95L1543.71 1539.6L2757.23 657.918L2720.2 606.95Z" fill="black" fill-opacity="0.2"/>
<path d="M2720.2 606.95L1543.71 1539.6L2757.23 657.918L2720.2 606.95Z" fill="black" fill-opacity="0.2"/>
<path d="M2794.85 709.695L1543.71 1539.6L2757.23 657.918L2794.85 709.695Z" fill="#4C90EE"/>
<path d="M2794.85 709.695L1543.71 1539.6L2757.23 657.918L2794.85 709.695Z" fill="black" fill-opacity="0.2"/>
<path d="M2794.85 709.695L1543.71 1539.6L2757.23 657.918L2794.85 709.695Z" fill="black" fill-opacity="0.2"/>
<path d="M2950.96 1016.08L1543.85 1539.52L2970.43 1076L2950.96 1016.08Z" fill="#4C90EE"/>
<path d="M2950.96 1016.08L1543.85 1539.52L2970.43 1076L2950.96 1016.08Z" fill="black" fill-opacity="0.2"/>
<path d="M2950.96 1016.08L1543.85 1539.52L2970.43 1076L2950.96 1016.08Z" fill="black" fill-opacity="0.2"/>
<path d="M2990.21 1136.87L1543.85 1539.52L2970.43 1076L2990.21 1136.87Z" fill="#4C90EE"/>
<path d="M2990.21 1136.87L1543.85 1539.52L2970.43 1076L2990.21 1136.87Z" fill="black" fill-opacity="0.2"/>
<path d="M2990.21 1136.87L1543.85 1539.52L2970.43 1076L2990.21 1136.87Z" fill="black" fill-opacity="0.2"/>
<path d="M3044 1476.5L1544 1539.5H3044V1476.5Z" fill="#4C90EE"/>
<path d="M3044 1476.5L1544 1539.5H3044V1476.5Z" fill="black" fill-opacity="0.2"/>
<path d="M3044 1476.5L1544 1539.5H3044V1476.5Z" fill="black" fill-opacity="0.2"/>
<path d="M3044 1603.5L1544 1539.5H3044V1603.5Z" fill="#4C90EE"/>
<path d="M3044 1603.5L1544 1539.5H3044V1603.5Z" fill="black" fill-opacity="0.2"/>
<path d="M3044 1603.5L1544 1539.5H3044V1603.5Z" fill="black" fill-opacity="0.2"/>
<path d="M2990.21 1943.13L1544.15 1539.52L2970.74 2003.05L2990.21 1943.13Z" fill="#4C90EE"/>
<path d="M2990.21 1943.13L1544.15 1539.52L2970.74 2003.05L2990.21 1943.13Z" fill="black" fill-opacity="0.2"/>
<path d="M2990.21 1943.13L1544.15 1539.52L2970.74 2003.05L2990.21 1943.13Z" fill="black" fill-opacity="0.2"/>
<path d="M2950.96 2063.92L1544.15 1539.52L2970.74 2003.05L2950.96 2063.92Z" fill="#4C90EE"/>
<path d="M2950.96 2063.92L1544.15 1539.52L2970.74 2003.05L2950.96 2063.92Z" fill="black" fill-opacity="0.2"/>
<path d="M2950.96 2063.92L1544.15 1539.52L2970.74 2003.05L2950.96 2063.92Z" fill="black" fill-opacity="0.2"/>
<path d="M2794.85 2370.31L1544.29 1539.6L2757.82 2421.27L2794.85 2370.31Z" fill="#4C90EE"/>
<path d="M2794.85 2370.31L1544.29 1539.6L2757.82 2421.27L2794.85 2370.31Z" fill="black" fill-opacity="0.2"/>
<path d="M2794.85 2370.31L1544.29 1539.6L2757.82 2421.27L2794.85 2370.31Z" fill="black" fill-opacity="0.2"/>
<path d="M2720.2 2473.05L1544.29 1539.6L2757.82 2421.27L2720.2 2473.05Z" fill="#4C90EE"/>
<path d="M2720.2 2473.05L1544.29 1539.6L2757.82 2421.27L2720.2 2473.05Z" fill="black" fill-opacity="0.2"/>
<path d="M2720.2 2473.05L1544.29 1539.6L2757.82 2421.27L2720.2 2473.05Z" fill="black" fill-opacity="0.2"/>
<path d="M2477.05 2716.2L1544.4 1539.71L2426.08 2753.23L2477.05 2716.2Z" fill="#4C90EE"/>
<path d="M2477.05 2716.2L1544.4 1539.71L2426.08 2753.23L2477.05 2716.2Z" fill="black" fill-opacity="0.2"/>
<path d="M2477.05 2716.2L1544.4 1539.71L2426.08 2753.23L2477.05 2716.2Z" fill="black" fill-opacity="0.2"/>
<path d="M2374.31 2790.85L1544.4 1539.71L2426.08 2753.23L2374.31 2790.85Z" fill="#4C90EE"/>
<path d="M2374.31 2790.85L1544.4 1539.71L2426.08 2753.23L2374.31 2790.85Z" fill="black" fill-opacity="0.2"/>
<path d="M2374.31 2790.85L1544.4 1539.71L2426.08 2753.23L2374.31 2790.85Z" fill="black" fill-opacity="0.2"/>
<path d="M2067.92 2946.96L1544.48 1539.85L2008 2966.43L2067.92 2946.96Z" fill="#4C90EE"/>
<path d="M2067.92 2946.96L1544.48 1539.85L2008 2966.43L2067.92 2946.96Z" fill="black" fill-opacity="0.2"/>
<path d="M2067.92 2946.96L1544.48 1539.85L2008 2966.43L2067.92 2946.96Z" fill="black" fill-opacity="0.2"/>
<path d="M1947.13 2986.21L1544.48 1539.85L2008 2966.43L1947.13 2986.21Z" fill="#4C90EE"/>
<path d="M1947.13 2986.21L1544.48 1539.85L2008 2966.43L1947.13 2986.21Z" fill="black" fill-opacity="0.2"/>
<path d="M1947.13 2986.21L1544.48 1539.85L2008 2966.43L1947.13 2986.21Z" fill="black" fill-opacity="0.2"/>
<path d="M1607.5 3040L1544.5 1540L1544.5 3040H1607.5Z" fill="#4C90EE"/>
<path d="M1607.5 3040L1544.5 1540L1544.5 3040H1607.5Z" fill="black" fill-opacity="0.2"/>
<path d="M1607.5 3040L1544.5 1540L1544.5 3040H1607.5Z" fill="black" fill-opacity="0.2"/>
<path d="M1480.5 3040L1544.5 1540L1544.5 3040H1480.5Z" fill="#4C90EE"/>
<path d="M1480.5 3040L1544.5 1540L1544.5 3040H1480.5Z" fill="black" fill-opacity="0.2"/>
<path d="M1480.5 3040L1544.5 1540L1544.5 3040H1480.5Z" fill="black" fill-opacity="0.2"/>
<path d="M1140.87 2986.21L1544.48 1540.15L1080.95 2966.74L1140.87 2986.21Z" fill="#4C90EE"/>
<path d="M1140.87 2986.21L1544.48 1540.15L1080.95 2966.74L1140.87 2986.21Z" fill="black" fill-opacity="0.2"/>
<path d="M1140.87 2986.21L1544.48 1540.15L1080.95 2966.74L1140.87 2986.21Z" fill="black" fill-opacity="0.2"/>
<path d="M1020.08 2946.96L1544.48 1540.15L1080.95 2966.74L1020.08 2946.96Z" fill="#4C90EE"/>
<path d="M1020.08 2946.96L1544.48 1540.15L1080.95 2966.74L1020.08 2946.96Z" fill="black" fill-opacity="0.2"/>
<path d="M1020.08 2946.96L1544.48 1540.15L1080.95 2966.74L1020.08 2946.96Z" fill="black" fill-opacity="0.2"/>
<path d="M713.695 2790.85L1544.4 1540.29L662.727 2753.82L713.695 2790.85Z" fill="#4C90EE"/>
<path d="M713.695 2790.85L1544.4 1540.29L662.727 2753.82L713.695 2790.85Z" fill="black" fill-opacity="0.2"/>
<path d="M713.695 2790.85L1544.4 1540.29L662.727 2753.82L713.695 2790.85Z" fill="black" fill-opacity="0.2"/>
<path d="M610.95 2716.2L1544.4 1540.29L662.727 2753.82L610.95 2716.2Z" fill="#4C90EE"/>
<path d="M610.95 2716.2L1544.4 1540.29L662.727 2753.82L610.95 2716.2Z" fill="black" fill-opacity="0.2"/>
<path d="M610.95 2716.2L1544.4 1540.29L662.727 2753.82L610.95 2716.2Z" fill="black" fill-opacity="0.2"/>
<path d="M367.799 2473.05L1544.29 1540.4L330.768 2422.08L367.799 2473.05Z" fill="#4C90EE"/>
<path d="M367.799 2473.05L1544.29 1540.4L330.768 2422.08L367.799 2473.05Z" fill="black" fill-opacity="0.2"/>
<path d="M367.799 2473.05L1544.29 1540.4L330.768 2422.08L367.799 2473.05Z" fill="black" fill-opacity="0.2"/>
<path d="M293.15 2370.31L1544.29 1540.4L330.768 2422.08L293.15 2370.31Z" fill="#4C90EE"/>
<path d="M293.15 2370.31L1544.29 1540.4L330.768 2422.08L293.15 2370.31Z" fill="black" fill-opacity="0.2"/>
<path d="M293.15 2370.31L1544.29 1540.4L330.768 2422.08L293.15 2370.31Z" fill="black" fill-opacity="0.2"/>
<path d="M137.038 2063.92L1544.15 1540.48L117.57 2004L137.038 2063.92Z" fill="#4C90EE"/>
<path d="M137.038 2063.92L1544.15 1540.48L117.57 2004L137.038 2063.92Z" fill="black" fill-opacity="0.2"/>
<path d="M137.038 2063.92L1544.15 1540.48L117.57 2004L137.038 2063.92Z" fill="black" fill-opacity="0.2"/>
<path d="M97.7928 1943.13L1544.15 1540.48L117.57 2004L97.7928 1943.13Z" fill="#4C90EE"/>
<path d="M97.7928 1943.13L1544.15 1540.48L117.57 2004L97.7928 1943.13Z" fill="black" fill-opacity="0.2"/>
<path d="M97.7928 1943.13L1544.15 1540.48L117.57 2004L97.7928 1943.13Z" fill="black" fill-opacity="0.2"/>
</g>
<defs>
<filter id="filter0_d_6_620" x="0.900002" y="0.900002" width="3086.2" height="3086.2" filterUnits="userSpaceOnUse" color-interpolation-filters="sRGB">
<feFlood flood-opacity="0" result="BackgroundImageFix"/>
<feColorMatrix in="SourceAlpha" type="matrix" values="0 0 0 0 0 0 0 0 0 0 0 0 0 0 0 0 0 0 127 0" result="hardAlpha"/>
<feOffset dy="4"/>
<feGaussianBlur stdDeviation="21.55"/>
<feComposite in2="hardAlpha" operator="out"/>
<feColorMatrix type="matrix" values="0 0 0 0 0 0 0 0 0 0 0 0 0 0 0 0 0 0 0.25 0"/>
<feBlend mode="normal" in2="BackgroundImageFix" result="effect1_dropShadow_6_620"/>
<feBlend mode="normal" in="SourceGraphic" in2="effect1_dropShadow_6_620" result="shape"/>
</filter>
</defs>
</svg>
